<svg width="32" height="32" viewBox="0 0 32 32" fill="none" xmlns="http://www.w3.org/2000/svg">
<rect width="32" height="32" fill="#EEF7ED"/>
<path d="M8.17974 24.9629C7.39183 24.1412 6.6339 23.3403 5.86358 22.5515C5.64698 22.3297 5.38945 22.1484 5.16154 21.9368C5.11487 21.8935 5.11671 21.7979 5.09619 21.7264C5.17756 21.7239 5.26861 21.6961 5.33879 21.7229C6.00792 21.9784 6.66775 22.2596 7.34288 22.4975C7.62481 22.5969 7.93534 22.6387 8.23594 22.6575C9.64104 22.745 9.88576 21.8918 9.60169 20.8644C9.27618 19.6871 8.70494 18.5777 8.23853 17.4395C8.22083 17.3964 8.16216 17.3634 8.15836 17.3223C8.14695 17.1994 8.15332 17.0747 8.15275 16.9508C8.25795 16.9874 8.37826 17.0026 8.46585 17.0643C8.96331 17.4144 9.44504 17.7872 9.94703 18.1305C10.7907 18.7075 11.736 18.9977 12.7415 18.803C13.6076 18.6352 14.1172 17.9755 14.4196 17.1786C14.7512 16.3049 14.9119 15.3916 14.927 14.4574C14.9395 13.6766 14.9246 12.8954 14.9345 12.1146C14.9361 11.9897 15.0038 11.8657 15.041 11.7413C15.1283 11.849 15.2727 11.9465 15.2939 12.0659C15.4465 12.9254 15.969 13.5929 16.4559 14.2632C17.13 15.191 17.876 16.0684 18.935 16.5927C19.8399 17.0407 20.6638 16.8474 21.3542 16.2652C22.447 15.3434 23.106 14.1298 23.4309 12.7339C23.4637 12.5932 23.5975 12.4761 23.6845 12.3481C23.7324 12.4786 23.8198 12.6085 23.8217 12.7397C23.8341 13.6047 23.7693 14.4752 23.845 15.3338C23.918 16.1613 24.0367 17.002 24.534 17.7229C24.8724 18.2135 25.3086 18.3427 25.826 18.0868C26.8271 17.5915 27.5013 16.7468 28.1792 15.9033C28.262 15.8003 28.3844 15.7291 28.4884 15.6432C28.4855 15.785 28.5126 15.9354 28.4749 16.0672C28.1907 17.0606 27.8618 18.0424 27.612 19.0441C27.4423 19.7248 27.354 20.4292 27.2767 21.1283C27.2404 21.4565 27.2319 21.5795 26.8281 21.4678C26.3045 21.323 25.7448 21.2805 25.1978 21.255C24.4747 21.2213 23.7489 21.2422 23.0243 21.2476C21.5316 21.2587 20.0795 21.5219 18.6186 21.8282C16.6054 22.2504 14.7086 22.9663 12.9011 23.8974C11.7526 24.489 10.7062 25.2812 9.62746 26.0036C9.38028 26.1691 9.20547 26.2777 8.98848 25.9796C8.74073 25.6394 8.46729 25.3178 8.17974 24.9629Z" fill="#051B16"/>
<path d="M14.247 10.0981C13.6167 9.78636 13.0165 9.48875 12.4042 9.21882C12.1603 9.11133 12.2139 9.03164 12.3641 8.89431C13.1112 8.21144 13.4395 7.35546 13.4189 6.35031C13.4165 6.23443 13.4989 6.11681 13.5419 6C13.6133 6.09007 13.7023 6.1712 13.7533 6.27162C14.1807 7.11358 14.9181 7.53554 15.7805 7.80219C15.9417 7.85202 16.0847 7.96078 16.236 8.04234C16.1146 8.10178 15.9745 8.13936 15.8747 8.22425C15.2834 8.72728 14.8901 9.35517 14.7278 10.1199C14.6991 10.2552 14.6767 10.3919 14.6514 10.5279C14.5607 10.4288 14.4705 10.3292 14.3792 10.2307C14.3448 10.1937 14.308 10.1591 14.247 10.0981Z" fill="#051B16"/>
<path d="M23.1961 10.8565C23.0737 10.4111 23.271 10.0766 23.6166 9.94232C23.9074 9.8294 24.2641 9.87845 24.4899 10.2212C24.7356 10.5942 24.6549 10.9816 24.2251 11.2938C23.9261 11.511 23.5656 11.4299 23.3283 11.0878C23.2845 11.0247 23.2566 10.9508 23.1961 10.8565Z" fill="#051B16"/>
<path d="M29.1117 13.1823C29.6381 13.1605 29.96 13.4274 29.9965 13.8695C30.0349 14.3345 29.753 14.7104 29.2785 14.7631C29.1554 14.7768 28.9592 14.6792 28.8948 14.5731C28.7012 14.2542 28.4487 13.9152 28.7686 13.5285C28.8642 13.413 28.9799 13.3141 29.1117 13.1823Z" fill="#051B16"/>
<path d="M3.12375 21.3225C3.06476 21.0194 2.96189 20.7276 3.01454 20.4673C3.08319 20.1278 3.3714 19.9859 3.73335 20.0313C4.08765 20.0758 4.29821 20.2806 4.30086 20.6209C4.30278 20.867 4.28326 21.2084 4.12986 21.3395C3.85843 21.5715 3.47879 21.5992 3.12375 21.3225Z" fill="#051B16"/>
<path d="M6.25847 15.7609C5.8676 15.3506 5.90387 14.9989 6.3001 14.6526C6.60489 14.3862 6.98814 14.4141 7.26989 14.7499C7.52026 15.0483 7.5219 15.7418 7.22691 15.8257C6.93952 15.9074 6.60024 15.8067 6.25847 15.7609Z" fill="#051B16"/>
</svg>
