<svg width="267" height="200" viewBox="0 0 267 200" fill="none" xmlns="http://www.w3.org/2000/svg">
<path d="M51.2238 187.527C43.432 179.402 35.9367 171.482 28.3188 163.681C26.1769 161.488 23.63 159.694 21.3762 157.602C20.9147 157.173 20.9329 156.228 20.73 155.521C21.5347 155.497 22.435 155.221 23.1291 155.486C29.7463 158.013 36.2714 160.794 42.9479 163.147C45.736 164.13 48.8069 164.544 51.7795 164.729C65.6749 165.595 68.095 157.157 65.2857 146.997C62.0667 135.354 56.4176 124.383 51.8052 113.128C51.6302 112.701 51.05 112.375 51.0123 111.969C50.8996 110.753 50.9625 109.52 50.9569 108.294C51.9972 108.657 53.187 108.807 54.0532 109.417C58.9727 112.879 63.7366 116.566 68.7008 119.961C77.0436 125.667 86.3928 128.537 96.3356 126.611C104.901 124.952 109.94 118.428 112.931 110.547C116.21 101.907 117.8 92.8756 117.948 83.6367C118.073 75.9155 117.925 68.1902 118.023 60.4683C118.039 59.2338 118.709 58.0075 119.076 56.7773C119.94 57.8418 121.367 58.8061 121.577 59.9866C123.086 68.4868 128.253 75.088 133.068 81.716C139.734 90.8914 147.112 99.5687 157.584 104.753C166.533 109.184 174.681 107.272 181.508 101.514C192.316 92.3991 198.833 80.397 202.046 66.5928C202.369 65.2018 203.693 64.0436 204.553 62.7773C205.027 64.068 205.892 65.353 205.91 66.6501C206.033 75.2048 205.392 83.8133 206.141 92.3037C206.862 100.487 208.037 108.801 212.954 115.93C216.301 120.782 220.615 122.06 225.731 119.529C235.631 114.631 242.299 106.277 249.002 97.9353C249.821 96.9167 251.031 96.2131 252.06 95.3636C252.031 96.7659 252.299 98.2531 251.926 99.5569C249.116 109.381 245.864 119.09 243.393 128.995C241.714 135.727 240.841 142.693 240.077 149.606C239.719 152.852 239.634 154.069 235.641 152.964C230.463 151.532 224.928 151.112 219.519 150.859C212.368 150.526 205.19 150.733 198.025 150.787C183.263 150.897 168.903 153.499 154.456 156.528C134.547 160.703 115.789 167.783 97.9142 176.991C86.557 182.841 76.2081 190.675 65.5406 197.819C63.0962 199.456 61.3674 200.53 59.2215 197.583C56.7715 194.218 54.0675 191.038 51.2238 187.527Z" fill="#EEF7ED"/>
<path d="M111.224 40.5273C104.99 37.444 99.0554 34.5009 92.9997 31.8315C90.5882 30.7685 91.1183 29.9805 92.604 28.6224C99.9913 21.8693 103.238 13.4044 103.035 3.46427C103.011 2.31829 103.825 1.15517 104.251 0C104.957 0.890726 105.837 1.69298 106.341 2.68611C110.568 11.0124 117.861 15.1853 126.389 17.8222C127.983 18.315 129.397 19.3905 130.894 20.1971C129.693 20.7849 128.308 21.1566 127.321 21.9961C121.473 26.9706 117.583 33.1799 115.979 40.7423C115.695 42.0805 115.473 43.432 115.223 44.7773C114.326 43.7971 113.434 42.8128 112.531 41.8386C112.192 41.4727 111.827 41.1304 111.224 40.5273Z" fill="#EEF7ED"/>
<path d="M199.724 48.0273C198.514 43.622 200.465 40.314 203.883 38.9864C206.758 37.8697 210.285 38.3548 212.518 41.7444C214.948 45.4328 214.15 49.264 209.9 52.351C206.943 54.4993 203.378 53.6974 201.031 50.314C200.598 49.6907 200.322 48.959 199.724 48.0273Z" fill="#EEF7ED"/>
<path d="M258.224 71.0273C263.429 70.8117 266.613 73.4506 266.974 77.823C267.353 82.421 264.565 86.1392 259.873 86.6601C258.655 86.7952 256.716 85.8305 256.079 84.7815C254.164 81.6272 251.667 78.2748 254.831 74.4509C255.776 73.3084 256.921 72.3306 258.224 71.0273Z" fill="#EEF7ED"/>
<path d="M1.22381 151.527C0.640473 148.53 -0.376872 145.645 0.143757 143.07C0.822692 139.713 3.67283 138.309 7.25223 138.759C10.756 139.199 12.8382 141.224 12.8645 144.589C12.8835 147.022 12.6904 150.399 11.1734 151.696C8.48922 153.99 4.73487 154.263 1.22381 151.527Z" fill="#EEF7ED"/>
<path d="M32.2238 96.5273C28.3584 92.4697 28.717 88.9921 32.6355 85.5672C35.6496 82.9327 39.4396 83.2087 42.2259 86.5294C44.7018 89.4802 44.7181 96.3381 41.8008 97.1679C38.9588 97.9763 35.6037 96.9808 32.2238 96.5273Z" fill="#EEF7ED"/>
</svg>
