<svg width="1868" height="531" viewBox="0 0 1868 531" fill="none" xmlns="http://www.w3.org/2000/svg">
<path d="M301.081 236.636C315.848 249.381 323.482 265.855 325.563 284.259C328.008 305.892 325.042 327.084 311.734 345.356C302.634 357.85 290.065 366.147 275.846 371.834C264.266 376.465 252.196 379.237 239.687 379.893C234.157 380.183 228.636 380.719 223.103 380.855C206.079 381.273 189.052 381.588 172.026 381.868C165.41 381.977 162.404 385.68 163.815 392.157C164.252 394.163 164.786 396.209 164.789 398.238C164.846 437.066 164.831 475.893 164.831 514.72C164.831 515.387 164.845 516.054 164.829 516.72C164.651 524.471 164.225 524.757 156.536 524.925C150.004 525.068 143.471 525.883 136.957 525.714C134.537 525.652 131.689 524.977 131.697 520.543C131.872 419.726 131.84 318.907 131.797 218.09C131.796 214.31 133.348 212.842 137.091 212.849C168.586 212.913 200.103 212.178 231.568 213.156C249.874 213.726 268.143 216.959 284.645 225.955C290.266 229.019 295.449 232.886 301.081 236.636ZM231.331 241.886C228.639 241.553 225.948 240.944 223.253 240.931C205.604 240.844 187.954 240.951 170.304 240.836C166.283 240.81 164.773 242.353 164.783 246.369C164.868 280.336 164.89 314.304 164.75 348.271C164.734 352.084 166.009 352.985 169.588 352.955C187.737 352.804 205.888 353.006 224.036 352.841C234.877 352.742 245.578 351.328 255.933 347.887C270.106 343.177 282.028 335.457 288.562 321.532C294.275 309.359 295.505 296.371 292.59 283.255C290.752 274.985 287.659 267.121 281.393 260.931C267.782 247.484 250.434 243.729 231.331 241.886Z" fill="#051B16"/>
<path d="M1858.83 525.886C1855.5 525.886 1852.67 525.886 1849.84 525.886C1841.07 525.886 1839.13 524.136 1838.87 515.26C1838.67 508.545 1838.87 501.818 1838.78 495.099C1838.77 494.434 1837.8 493.164 1837.6 493.225C1836.49 493.557 1835.23 493.989 1834.49 494.807C1829.23 500.587 1824.53 506.959 1818.8 512.212C1808.53 521.625 1796.07 526.96 1782.27 528.828C1774.93 529.822 1767.47 531.012 1760.12 530.73C1741.56 530.018 1723.7 525.844 1709.66 512.917C1698.48 502.625 1691.28 489.884 1690.64 473.839C1690.26 464.226 1690.75 454.915 1693.49 445.77C1697.43 432.663 1706.71 423.963 1717.87 416.875C1728.95 409.845 1741.22 406.021 1753.99 403.981C1765.2 402.192 1776.52 401.062 1787.81 399.945C1794.47 399.287 1801.19 399.191 1807.89 398.893C1816.08 398.529 1824.27 398.313 1832.45 397.781C1833.63 397.704 1835.68 396.231 1835.69 395.378C1836.04 373.597 1831.86 351.012 1805.74 341.545C1794.08 337.32 1781.71 337.165 1769.15 338.632C1758.32 339.895 1748.35 342.976 1738.99 348.016C1733.33 351.06 1728.19 355.167 1723.16 359.23C1720.85 361.105 1719.49 361.454 1717.53 359.123C1713.36 354.156 1708.87 349.442 1704.99 344.261C1704.16 343.149 1704.66 339.549 1705.77 338.699C1721.08 327.008 1737.91 318.257 1757.26 316.037C1770.06 314.57 1783.06 313.54 1795.89 314.146C1811.38 314.877 1825.62 320.509 1838.3 329.8C1851.6 339.542 1858.7 353.244 1862.64 368.605C1864.45 375.698 1864.7 383.326 1864.74 390.718C1864.95 425.369 1864.63 460.024 1864.97 494.673C1865.06 503.598 1867 512.493 1867.65 521.434C1867.76 522.83 1865.77 524.87 1864.25 525.739C1862.99 526.457 1861 525.886 1858.83 525.886ZM1820.33 483.886C1822.83 479.928 1825.72 476.158 1827.76 471.977C1834.88 457.432 1836.72 441.869 1835.72 425.897C1835.65 424.839 1833.97 423.092 1832.95 423.022C1828.37 422.709 1823.74 422.772 1819.14 422.911C1811.12 423.154 1803.11 423.756 1795.09 423.841C1781.17 423.987 1767.67 426.381 1754.55 430.91C1739.56 436.087 1725.66 442.514 1722.59 460.611C1720.02 475.811 1723.16 487.772 1735.29 496.533C1751.23 508.039 1769.64 507.813 1788.05 504.076C1800.95 501.457 1811.13 493.996 1820.33 483.886Z" fill="#051B16"/>
<path d="M1055.83 485.886C1055.16 482.83 1054.04 480.297 1053.9 477.713C1052.89 457.63 1054.35 438.326 1071.24 423.93C1081.06 415.561 1092.27 410.12 1104.67 406.87C1120.12 402.823 1135.7 399.839 1151.76 399.831C1158.62 399.827 1165.48 399.2 1172.34 398.891C1180.2 398.536 1188.07 398.323 1195.91 397.76C1196.95 397.686 1198.67 395.941 1198.71 394.917C1199.23 381.541 1197.87 368.556 1189.84 357.159C1183.1 347.598 1173.82 341.806 1162.43 340.016C1153.98 338.687 1145.29 337.588 1136.8 338.091C1120.31 339.07 1105.07 344.479 1091.69 354.516C1090.56 355.369 1089.31 356.086 1088.24 357.007C1082.92 361.563 1082.82 361.688 1078.13 356.615C1074.41 352.586 1070.91 348.339 1067.61 343.959C1067.05 343.209 1067.55 340.845 1068.37 339.998C1075.35 332.723 1083.96 327.591 1093.2 324.054C1103 320.304 1113.14 316.454 1123.44 315.248C1136.32 313.741 1149.51 314.732 1162.56 314.937C1172.28 315.089 1181.08 318.677 1189.76 322.819C1200.56 327.967 1209.27 335.257 1215.87 345.259C1222.89 355.903 1226.85 367.38 1226.88 380.214C1226.9 384.909 1227.77 389.601 1227.79 394.296C1227.87 426.118 1227.6 457.944 1227.97 489.763C1228.09 499.856 1229.85 509.928 1230.82 520.013C1231.18 523.691 1230.08 526.05 1225.74 525.926C1220.08 525.763 1214.38 526.251 1208.77 525.696C1206.68 525.49 1203.44 523.422 1203.08 521.704C1201.78 515.616 1201.36 509.323 1200.91 503.085C1200.75 500.926 1201.7 498.706 1201.75 496.505C1201.78 495.367 1200.95 494.208 1200.5 493.058C1199.61 493.712 1198.44 494.181 1197.87 495.047C1190.34 506.545 1180.41 515.649 1168.26 521.678C1157.86 526.836 1146.53 529.111 1134.71 530.199C1121.51 531.413 1108.95 530.006 1096.61 526.056C1076.55 519.637 1062.79 506.429 1055.83 485.886ZM1185.83 480.386C1187.83 477.217 1190.22 474.225 1191.76 470.849C1198.26 456.696 1199.76 441.675 1198.76 426.322C1198.68 425.141 1197.69 423.186 1196.86 423.032C1193.23 422.359 1189.49 421.803 1185.82 421.967C1176.26 422.393 1166.72 423.557 1157.16 423.805C1143.41 424.162 1129.99 426.412 1117.14 431.015C1102.05 436.424 1087.97 443.522 1085.29 461.946C1083.63 473.372 1086.11 483.834 1093.98 492.408C1101.08 500.136 1110.25 503.656 1120.73 505.025C1137.64 507.233 1154 506.603 1168.45 496.713C1174.74 492.407 1179.74 486.219 1185.83 480.386Z" fill="#051B16"/>
<path d="M104.081 182.136C92.6438 189.574 81.3756 196.64 70.312 204.014C66.4323 206.6 64.6166 206.539 60.9503 202.535C49.2092 189.712 37.4821 176.875 25.5654 164.217C21.9129 160.337 18.1631 156.811 11.5763 158.681C6.52139 160.116 1.86923 156.444 0.274757 150.712C-1.0761 145.856 2.83408 143.111 5.9024 140.443C8.04046 138.585 15.7554 140.087 17.9634 142.63C18.9239 143.736 19.8401 145.463 19.7255 146.819C19.2333 152.645 21.8045 155.581 27.3657 157.018C36.508 159.38 45.3706 163.261 54.6281 164.634C66.9821 166.465 68.5898 160.136 66.3596 150.152C63.0777 135.46 55.853 122.186 48.7844 108.98C47.0562 105.752 44.6854 103.456 40.2579 103.768C34.6462 104.165 30.6914 99.5136 30.8315 93.6007C30.9621 88.0914 35.6624 84.5309 42.3363 84.8858C47.2769 85.1485 52.288 90.3523 50.5984 95.0263C48.1372 101.835 51.9852 105.175 56.1007 108.565C64.2204 115.254 72.6733 121.503 82.6748 125.227C94.2597 129.541 102.635 128.415 108.647 121.173C112.465 116.572 114.647 110.388 116.686 104.605C118.391 99.7681 119.374 94.5189 119.71 89.389C120.488 77.5281 121.917 65.6094 118.352 53.8511C115.73 45.2019 108.629 41.8438 101.234 38.9898C97.9145 37.7086 94.1509 37.5993 90.611 36.8527C89.7329 36.6675 88.9415 36.0716 88.1102 35.6646C88.6314 34.9575 88.9975 33.959 89.6969 33.5869C101.428 27.3464 103.65 16.2174 104.893 4.50455C105.026 3.25211 106.009 2.08989 106.597 0.885803C108.342 1.79566 110.838 2.25497 111.701 3.69371C115.354 9.78397 120.203 14.285 126.643 17.2495C130.362 18.9617 133.837 21.0272 138.189 18.9973C139.06 18.5909 140.6 19.6174 141.831 19.9832C141.006 20.9507 140.373 22.3013 139.326 22.8262C129.482 27.7609 124.793 36.6249 122.068 46.5024C121.255 49.4482 122.751 53.3942 124.074 56.5058C131.259 73.4035 141.306 88.4859 155.178 100.556C168.393 112.055 180.775 109.217 191.724 94.2233C198.59 84.8206 203.312 74.1126 206.214 62.7905C206.663 61.0404 205.323 58.3365 204.012 56.7225C199.927 51.6948 199.017 45.3083 204.759 41.7866C207.4 40.1669 211.533 39.9141 214.718 40.5054C219.236 41.3443 220.613 45.9611 220.539 49.6987C220.489 52.2096 218.215 55.7357 215.951 56.9146C211.727 59.114 210.256 61.6826 210.766 66.3095C212.282 80.0686 213.273 93.889 214.987 107.621C215.426 111.139 217.403 114.654 219.343 117.751C222.091 122.137 228.003 122.515 233.48 117.455C241.414 110.125 248.384 101.757 255.856 93.9175C258.175 91.485 256.7 89.5692 256.069 86.9936C255.227 83.5549 255.141 79.328 256.436 76.1295C257.877 72.5675 261.863 71.2161 265.969 71.8964C270.193 72.5964 273.064 75.2947 273.688 79.2675C274.356 83.5235 274.592 88.8671 269.011 90.0166C260.888 91.6895 259.565 98.1032 257.909 104.205C254.647 116.223 251.741 128.341 248.881 140.463C247.902 144.613 247.504 148.899 246.83 153.121C246.222 156.923 245.015 159.969 240.13 158.897C224.531 155.472 208.598 156.038 192.989 157.185C166.711 159.117 141.204 165.417 116.989 176.228C112.769 178.113 108.551 180 104.081 182.136Z" fill="#051B16"/>
<path d="M761.831 522.886C761.498 512.695 761.184 503.003 760.798 493.314C760.765 492.495 760.255 491.695 759.967 490.886C759.255 491.466 758.211 491.901 757.881 492.649C753.13 503.428 744.519 510.738 735.096 516.947C723.768 524.41 711.283 528.639 697.527 530.129C684.65 531.524 672.187 530.427 660.169 526.631C652.332 524.156 644.539 520.191 638.001 515.217C622.788 503.643 615.823 486.849 611.917 468.695C611.006 464.46 610.887 459.995 610.876 455.634C610.794 423.091 610.884 390.549 610.786 358.006C610.767 351.646 609.933 345.289 609.904 338.929C609.881 333.737 610.167 328.486 611.048 323.388C611.29 321.987 614.11 320.146 615.838 320.044C622.478 319.653 629.158 319.776 635.819 319.929C639.459 320.013 640.931 321.899 640.916 325.834C640.775 363.984 640.462 402.139 641.022 440.281C641.232 454.563 642.588 469.071 649.863 482.018C656.944 494.62 667.573 502.522 681.975 504.86C696.117 507.155 709.979 506.847 723.06 499.901C736.933 492.535 745.833 480.867 751.8 466.735C757.54 453.14 758.892 438.776 758.857 424.168C758.776 391.516 758.921 358.864 758.734 326.212C758.706 321.408 760.641 319.839 764.965 319.873C771.295 319.923 777.626 319.903 783.957 319.88C788.065 319.864 789.919 321.459 789.911 325.971C789.793 387.277 789.815 448.583 789.874 509.889C789.878 513.417 790.398 516.956 790.859 520.467C791.331 524.061 789.314 525.702 786.284 525.811C779.629 526.051 772.953 526.036 766.3 525.772C764.781 525.712 763.319 524.219 761.831 522.886Z" fill="#051B16"/>
<path d="M943.832 321.886C943.832 387.71 943.832 453.034 943.831 518.358C943.831 524.333 943.289 524.881 937.396 524.885C931.064 524.889 924.725 524.722 918.401 524.952C915.039 525.075 913.336 524.16 913.822 520.574C913.889 520.083 913.832 519.576 913.832 519.076C913.832 411.924 913.86 304.772 913.731 197.621C913.726 193.08 914.747 191.465 919.481 191.779C925.952 192.207 932.484 192.121 938.967 191.8C943.02 191.599 943.925 193.052 943.913 196.903C943.782 238.397 943.832 279.892 943.832 321.886Z" fill="#051B16"/>
<path d="M1378.83 522.886C1376.34 524.219 1373.89 525.633 1371.36 525.771C1365.05 526.118 1358.68 526.18 1352.39 525.684C1350.77 525.556 1349.24 523.029 1347.89 521.415C1347.49 520.924 1347.83 519.802 1347.83 518.969C1347.83 459.322 1347.86 399.675 1347.79 340.028C1347.78 334.501 1347.27 328.966 1346.79 323.451C1346.5 320.08 1347.56 318.696 1351.15 318.818C1357.97 319.051 1364.81 319.025 1371.64 318.825C1374.88 318.73 1375.87 319.826 1375.91 323.068C1376.02 332.096 1376.49 341.121 1376.85 350.145C1376.89 351.064 1377.2 351.972 1377.38 352.886C1378.2 352.243 1379.4 351.771 1379.77 350.931C1385.68 337.782 1396.33 329.121 1408.26 322.22C1417.05 317.14 1426.9 313.997 1437.27 313.956C1444.63 313.927 1452 314.403 1459.35 314.959C1462.29 315.182 1464.44 316.692 1463.86 320.373C1462.76 327.44 1461.97 334.561 1460.67 341.588C1460.49 342.565 1458.05 343.842 1456.73 343.768C1449.16 343.344 1441.6 341.854 1434.06 342.041C1421.06 342.363 1409.36 347.356 1400.14 356.352C1390.58 365.685 1384.54 377.582 1382 390.702C1380.15 400.286 1379.07 410.16 1378.97 419.919C1378.61 454.071 1378.83 488.23 1378.83 522.886Z" fill="#051B16"/>
<path d="M409.831 400.886C409.831 388.389 409.961 376.39 409.796 364.395C409.621 351.701 409.247 339.008 408.8 326.319C408.538 318.881 408.398 318.886 415.946 318.886C421.444 318.886 426.954 319.094 432.438 318.816C436.371 318.617 437.719 320.763 437.779 323.959C437.935 332.345 437.789 340.736 437.877 349.123C437.891 350.381 438.518 351.632 438.861 352.886C439.851 351.917 441.142 351.115 441.786 349.954C451.645 332.188 466.777 321.262 486.101 315.927C497.214 312.86 508.515 313.192 519.845 314.848C524.65 315.55 526.454 317.307 524.981 322.568C523.33 328.47 522.586 334.669 521.931 340.79C521.585 344.021 519.795 344.072 517.563 343.868C510.836 343.251 504.092 341.805 497.399 342.025C476.973 342.698 461.423 352.104 451.323 369.955C444.216 382.515 440.873 396.1 440.789 410.592C440.588 445.17 440.165 479.747 439.832 514.324C439.829 514.657 439.828 514.991 439.832 515.324C439.955 525.886 439.955 525.886 428.763 525.886C424.43 525.886 420.087 525.691 415.769 525.939C411.23 526.199 409.748 524.302 409.766 519.858C409.889 488.366 409.831 456.874 409.831 425.381C409.831 417.383 409.831 409.384 409.831 400.886Z" fill="#051B16"/>
<path d="M1576.83 525.886C1569.67 525.886 1563 525.665 1556.35 525.966C1552.1 526.158 1551.14 523.806 1550.84 520.448C1550.77 519.622 1550.83 518.784 1550.83 517.951C1550.83 456.676 1550.83 395.4 1550.83 334.125C1550.83 330.904 1550.71 327.678 1550.86 324.465C1551.02 321.158 1551.9 318.646 1556.21 318.813C1563.2 319.083 1570.2 319.085 1577.19 318.806C1580.97 318.654 1581.93 319.991 1581.9 323.615C1581.76 346.926 1581.83 370.238 1581.83 393.549C1581.83 435.509 1581.78 477.47 1581.92 519.43C1581.93 523.096 1581.04 525.275 1576.83 525.886Z" fill="#051B16"/>
<path d="M1582.58 253.636C1576.66 260.266 1569.05 262.72 1561.36 260.565C1552.32 258.034 1546.02 251.37 1544.92 241.515C1543.77 231.181 1550.9 222.038 1560.98 218.913C1570.33 216.017 1577.43 220.139 1583.26 226.906C1588.48 232.956 1588.87 240.156 1586.62 247.473C1585.95 249.628 1584.13 251.425 1582.58 253.636Z" fill="#051B16"/>
</svg>
