<svg width="1868" height="530" viewBox="0 0 1868 530" fill="none" xmlns="http://www.w3.org/2000/svg">
<path d="M301.081 235.75C315.848 248.495 323.482 264.969 325.563 283.373C328.008 305.006 325.042 326.199 311.734 344.47C302.634 356.964 290.065 365.262 275.846 370.948C264.266 375.579 252.196 378.351 239.687 379.007C234.157 379.297 228.636 379.833 223.103 379.969C206.079 380.387 189.052 380.702 172.026 380.982C165.41 381.091 162.404 384.794 163.815 391.271C164.252 393.277 164.786 395.324 164.789 397.352C164.846 436.18 164.831 475.007 164.831 513.835C164.831 514.501 164.845 515.168 164.829 515.834C164.651 523.585 164.225 523.872 156.536 524.039C150.004 524.182 143.471 524.997 136.957 524.828C134.537 524.766 131.689 524.091 131.697 519.657C131.872 418.84 131.84 318.022 131.797 217.204C131.796 213.424 133.348 211.956 137.091 211.964C168.586 212.028 200.103 211.292 231.568 212.271C249.874 212.84 268.143 216.074 284.645 225.069C290.266 228.133 295.449 232 301.081 235.75ZM231.331 241C228.639 240.667 225.948 240.058 223.253 240.045C205.604 239.958 187.954 240.065 170.304 239.95C166.283 239.924 164.773 241.467 164.783 245.483C164.868 279.45 164.89 313.418 164.75 347.386C164.734 351.199 166.009 352.099 169.588 352.07C187.737 351.918 205.888 352.12 224.036 351.955C234.877 351.856 245.578 350.442 255.933 347.001C270.106 342.291 282.028 334.571 288.562 320.646C294.275 308.473 295.505 295.485 292.59 282.369C290.752 274.099 287.659 266.235 281.393 260.045C267.782 246.598 250.434 242.843 231.331 241Z" fill="#EEF7ED"/>
<path d="M1858.83 525C1855.5 525 1852.67 525 1849.84 525C1841.07 525 1839.13 523.25 1838.87 514.374C1838.67 507.659 1838.87 500.933 1838.78 494.213C1838.77 493.549 1837.8 492.278 1837.6 492.339C1836.49 492.671 1835.23 493.103 1834.49 493.921C1829.23 499.701 1824.53 506.073 1818.8 511.326C1808.53 520.739 1796.07 526.074 1782.27 527.942C1774.93 528.936 1767.47 530.126 1760.12 529.844C1741.56 529.132 1723.7 524.958 1709.66 512.032C1698.48 501.74 1691.28 488.998 1690.64 472.953C1690.26 463.34 1690.75 454.03 1693.49 444.885C1697.43 431.777 1706.71 423.077 1717.87 415.989C1728.95 408.959 1741.22 405.135 1753.99 403.095C1765.2 401.306 1776.52 400.176 1787.81 399.059C1794.47 398.401 1801.19 398.305 1807.89 398.007C1816.08 397.643 1824.27 397.427 1832.45 396.895C1833.63 396.819 1835.68 395.345 1835.69 394.492C1836.04 372.711 1831.86 350.126 1805.74 340.659C1794.08 336.434 1781.71 336.28 1769.15 337.746C1758.32 339.009 1748.35 342.091 1738.99 347.13C1733.33 350.174 1728.19 354.281 1723.16 358.345C1720.85 360.219 1719.49 360.568 1717.53 358.237C1713.36 353.27 1708.87 348.556 1704.99 343.375C1704.16 342.263 1704.66 338.663 1705.77 337.813C1721.08 326.122 1737.91 317.372 1757.26 315.152C1770.06 313.684 1783.06 312.655 1795.89 313.26C1811.38 313.991 1825.62 319.623 1838.3 328.914C1851.6 338.656 1858.7 352.358 1862.64 367.719C1864.45 374.812 1864.7 382.441 1864.74 389.832C1864.95 424.483 1864.63 459.138 1864.97 493.788C1865.06 502.712 1867 511.607 1867.65 520.548C1867.76 521.944 1865.77 523.984 1864.25 524.853C1862.99 525.572 1861 525 1858.83 525ZM1820.33 483C1822.83 479.042 1825.72 475.272 1827.76 471.091C1834.88 456.547 1836.72 440.983 1835.72 425.011C1835.65 423.954 1833.97 422.206 1832.95 422.137C1828.37 421.823 1823.74 421.886 1819.14 422.025C1811.12 422.268 1803.11 422.87 1795.09 422.955C1781.17 423.102 1767.67 425.495 1754.55 430.024C1739.56 435.201 1725.66 441.629 1722.59 459.725C1720.02 474.925 1723.16 486.887 1735.29 495.647C1751.23 507.153 1769.64 506.928 1788.05 503.19C1800.95 500.571 1811.13 493.111 1820.33 483Z" fill="#EEF7ED"/>
<path d="M1055.83 485C1055.16 481.944 1054.04 479.411 1053.9 476.827C1052.89 456.744 1054.35 437.44 1071.24 423.044C1081.06 414.675 1092.27 409.235 1104.67 405.984C1120.12 401.937 1135.7 398.953 1151.76 398.945C1158.62 398.941 1165.48 398.315 1172.34 398.005C1180.2 397.65 1188.07 397.437 1195.91 396.874C1196.95 396.8 1198.67 395.055 1198.71 394.031C1199.23 380.656 1197.87 367.67 1189.84 356.273C1183.1 346.713 1173.82 340.92 1162.43 339.13C1153.98 337.801 1145.29 336.702 1136.8 337.205C1120.31 338.184 1105.07 343.593 1091.69 353.63C1090.56 354.483 1089.31 355.2 1088.24 356.121C1082.92 360.677 1082.82 360.803 1078.13 355.729C1074.41 351.7 1070.91 347.454 1067.61 343.073C1067.05 342.324 1067.55 339.96 1068.37 339.112C1075.35 331.837 1083.96 326.705 1093.2 323.168C1103 319.419 1113.14 315.568 1123.44 314.362C1136.32 312.855 1149.51 313.846 1162.56 314.051C1172.28 314.203 1181.08 317.791 1189.76 321.933C1200.56 327.081 1209.27 334.371 1215.87 344.373C1222.89 355.017 1226.85 366.495 1226.88 379.328C1226.9 384.023 1227.77 388.715 1227.79 393.41C1227.87 425.233 1227.6 457.059 1227.97 488.877C1228.09 498.97 1229.85 509.042 1230.82 519.127C1231.18 522.805 1230.08 525.164 1225.74 525.04C1220.08 524.877 1214.38 525.365 1208.77 524.811C1206.68 524.604 1203.44 522.537 1203.08 520.818C1201.78 514.73 1201.36 508.437 1200.91 502.199C1200.75 500.04 1201.7 497.821 1201.75 495.619C1201.78 494.481 1200.95 493.322 1200.5 492.173C1199.61 492.826 1198.44 493.296 1197.87 494.161C1190.34 505.659 1180.41 514.763 1168.26 520.793C1157.86 525.95 1146.53 528.226 1134.71 529.313C1121.51 530.527 1108.95 529.12 1096.61 525.17C1076.55 518.751 1062.79 505.543 1055.83 485ZM1185.83 479.5C1187.83 476.332 1190.22 473.339 1191.76 469.964C1198.26 455.81 1199.76 440.789 1198.76 425.437C1198.68 424.256 1197.69 422.3 1196.86 422.146C1193.23 421.473 1189.49 420.917 1185.82 421.081C1176.26 421.507 1166.72 422.671 1157.16 422.919C1143.41 423.276 1129.99 425.526 1117.14 430.13C1102.05 435.538 1087.97 442.636 1085.29 461.06C1083.63 472.487 1086.11 482.948 1093.98 491.522C1101.08 499.25 1110.25 502.77 1120.73 504.139C1137.64 506.347 1154 505.717 1168.45 495.828C1174.74 491.521 1179.74 485.333 1185.83 479.5Z" fill="#EEF7ED"/>
<path d="M104.081 181.25C92.6438 188.688 81.3756 195.755 70.312 203.128C66.4323 205.714 64.6166 205.653 60.9503 201.649C49.2092 188.827 37.4821 175.989 25.5654 163.331C21.9129 159.451 18.1631 155.925 11.5763 157.795C6.52139 159.23 1.86923 155.558 0.274757 149.826C-1.0761 144.97 2.83408 142.225 5.9024 139.557C8.04046 137.699 15.7554 139.201 17.9634 141.744C18.9239 142.85 19.8401 144.577 19.7255 145.934C19.2333 151.76 21.8045 154.695 27.3657 156.132C36.508 158.494 45.3706 162.376 54.6281 163.748C66.9821 165.579 68.5898 159.25 66.3596 149.266C63.0777 134.574 55.853 121.301 48.7844 108.095C47.0562 104.866 44.6854 102.57 40.2579 102.883C34.6462 103.279 30.6914 98.6278 30.8315 92.7149C30.9621 87.2056 35.6624 83.6451 42.3363 84C47.2769 84.2627 52.288 89.4665 50.5984 94.1405C48.1372 100.949 51.9852 104.289 56.1007 107.679C64.2204 114.368 72.6733 120.617 82.6748 124.341C94.2597 128.655 102.635 127.529 108.647 120.287C112.465 115.687 114.647 109.502 116.686 103.719C118.391 98.8823 119.374 93.6331 119.71 88.5032C120.488 76.6423 121.917 64.7236 118.352 52.9653C115.73 44.3161 108.629 40.958 101.234 38.104C97.9145 36.8228 94.1509 36.7135 90.611 35.9669C89.7329 35.7817 88.9415 35.1858 88.1102 34.7787C88.6314 34.0717 88.9975 33.0732 89.6969 32.7011C101.428 26.4606 103.65 15.3316 104.893 3.61875C105.026 2.36631 106.009 1.20408 106.597 0C108.342 0.909859 110.838 1.36917 111.701 2.80791C115.354 8.89816 120.203 13.3992 126.643 16.3637C130.362 18.0759 133.837 20.1414 138.189 18.1115C139.06 17.7051 140.6 18.7316 141.831 19.0974C141.006 20.0649 140.373 21.4155 139.326 21.9404C129.482 26.8751 124.793 35.7391 122.068 45.6166C121.255 48.5624 122.751 52.5084 124.074 55.62C131.259 72.5177 141.306 87.6001 155.178 99.6704C168.393 111.17 180.775 108.331 191.724 93.3375C198.59 83.9348 203.312 73.2268 206.214 61.9047C206.663 60.1546 205.323 57.4507 204.012 55.8367C199.927 50.809 199.017 44.4225 204.759 40.9008C207.4 39.2811 211.533 39.0283 214.718 39.6196C219.236 40.4585 220.613 45.0753 220.539 48.8129C220.489 51.3238 218.215 54.8499 215.951 56.0288C211.727 58.2282 210.256 60.7968 210.766 65.4237C212.282 79.1828 213.273 93.0032 214.987 106.735C215.426 110.253 217.403 113.768 219.343 116.865C222.091 121.251 228.003 121.629 233.48 116.569C241.414 109.239 248.384 100.871 255.856 93.0317C258.175 90.5992 256.7 88.6833 256.069 86.1078C255.227 82.6691 255.141 78.4422 256.436 75.2437C257.877 71.6817 261.863 70.3303 265.969 71.0106C270.193 71.7106 273.064 74.4089 273.688 78.3817C274.356 82.6376 274.592 87.9813 269.011 89.1308C260.888 90.8037 259.565 97.2174 257.909 103.32C254.647 115.337 251.741 127.455 248.881 139.577C247.902 143.727 247.504 148.013 246.83 152.235C246.222 156.037 245.015 159.083 240.13 158.011C224.531 154.586 208.598 155.152 192.989 156.299C166.711 158.231 141.204 164.531 116.989 175.343C112.769 177.227 108.551 179.114 104.081 181.25Z" fill="#EEF7ED"/>
<path d="M761.831 522C761.498 511.809 761.184 502.117 760.798 492.429C760.765 491.609 760.255 490.809 759.967 490C759.255 490.581 758.211 491.015 757.881 491.764C753.13 502.543 744.519 509.852 735.096 516.061C723.768 523.525 711.283 527.754 697.527 529.243C684.65 530.638 672.187 529.541 660.169 525.745C652.332 523.27 644.539 519.305 638.001 514.331C622.788 502.757 615.823 485.963 611.917 467.81C611.006 463.574 610.887 459.109 610.876 454.748C610.794 422.206 610.884 389.663 610.786 357.12C610.767 350.76 609.933 344.403 609.904 338.043C609.881 332.851 610.167 327.6 611.048 322.502C611.29 321.101 614.11 319.26 615.838 319.159C622.478 318.767 629.158 318.89 635.819 319.044C639.459 319.127 640.931 321.013 640.916 324.949C640.775 363.098 640.462 401.253 641.022 439.395C641.232 453.677 642.588 468.185 649.863 481.132C656.944 493.735 667.573 501.636 681.975 503.974C696.117 506.269 709.979 505.961 723.06 499.016C736.933 491.65 745.833 479.981 751.8 465.85C757.54 452.254 758.892 437.89 758.857 423.283C758.776 390.631 758.921 357.978 758.734 325.327C758.706 320.522 760.641 318.953 764.965 318.987C771.295 319.037 777.626 319.017 783.957 318.994C788.065 318.979 789.919 320.573 789.911 325.085C789.793 386.391 789.815 447.697 789.874 509.003C789.878 512.531 790.398 516.071 790.859 519.581C791.331 523.175 789.314 524.816 786.284 524.926C779.629 525.165 772.953 525.15 766.3 524.886C764.781 524.826 763.319 523.333 761.831 522Z" fill="#EEF7ED"/>
<path d="M943.832 321C943.832 386.824 943.832 452.148 943.831 517.473C943.831 523.447 943.289 523.995 937.396 523.999C931.064 524.003 924.725 523.836 918.401 524.066C915.039 524.189 913.336 523.274 913.822 519.688C913.889 519.197 913.832 518.69 913.832 518.19C913.832 411.038 913.86 303.886 913.731 196.735C913.726 192.195 914.747 190.579 919.481 190.893C925.952 191.322 932.484 191.235 938.967 190.914C943.02 190.714 943.925 192.167 943.913 196.018C943.782 237.511 943.832 279.006 943.832 321Z" fill="#EEF7ED"/>
<path d="M1378.83 522C1376.34 523.333 1373.89 524.747 1371.36 524.886C1365.05 525.232 1358.68 525.294 1352.39 524.798C1350.77 524.67 1349.24 522.143 1347.89 520.53C1347.49 520.038 1347.83 518.917 1347.83 518.083C1347.83 458.436 1347.86 398.789 1347.79 339.143C1347.78 333.615 1347.27 328.08 1346.79 322.566C1346.5 319.194 1347.56 317.81 1351.15 317.933C1357.97 318.165 1364.81 318.139 1371.64 317.939C1374.88 317.844 1375.87 318.94 1375.91 322.182C1376.02 331.211 1376.49 340.235 1376.85 349.259C1376.89 350.178 1377.2 351.087 1377.38 352C1378.2 351.357 1379.4 350.885 1379.77 350.045C1385.68 336.896 1396.33 328.235 1408.26 321.334C1417.05 316.255 1426.9 313.111 1437.27 313.07C1444.63 313.041 1452 313.518 1459.35 314.073C1462.29 314.296 1464.44 315.807 1463.86 319.487C1462.76 326.554 1461.97 333.676 1460.67 340.702C1460.49 341.679 1458.05 342.957 1456.73 342.882C1449.16 342.458 1441.6 340.968 1434.06 341.155C1421.06 341.478 1409.36 346.47 1400.14 355.466C1390.58 364.799 1384.54 376.697 1382 389.816C1380.15 399.401 1379.07 409.274 1378.97 419.033C1378.61 453.185 1378.83 487.344 1378.83 522Z" fill="#EEF7ED"/>
<path d="M409.831 400C409.831 387.503 409.961 375.504 409.796 363.509C409.621 350.815 409.247 338.122 408.8 325.434C408.538 317.995 408.398 318 415.946 318C421.444 318 426.954 318.208 432.438 317.93C436.371 317.731 437.719 319.877 437.779 323.073C437.935 331.459 437.789 339.85 437.877 348.237C437.891 349.495 438.518 350.746 438.861 352C439.851 351.031 441.142 350.229 441.786 349.068C451.645 331.303 466.777 320.376 486.101 315.041C497.214 311.974 508.515 312.307 519.845 313.962C524.65 314.664 526.454 316.421 524.981 321.682C523.33 327.584 522.586 333.783 521.931 339.904C521.585 343.135 519.795 343.187 517.563 342.982C510.836 342.365 504.092 340.919 497.399 341.14C476.973 341.813 461.423 351.218 451.323 369.069C444.216 381.63 440.873 395.215 440.789 409.706C440.588 444.284 440.165 478.861 439.832 513.438C439.829 513.771 439.828 514.105 439.832 514.438C439.955 525 439.955 525 428.763 525C424.43 525 420.087 524.806 415.769 525.053C411.23 525.314 409.748 523.416 409.766 518.972C409.889 487.48 409.831 455.988 409.831 424.496C409.831 416.497 409.831 408.499 409.831 400Z" fill="#EEF7ED"/>
<path d="M1576.83 525C1569.67 525 1563 524.779 1556.35 525.08C1552.1 525.272 1551.14 522.92 1550.84 519.562C1550.77 518.736 1550.83 517.898 1550.83 517.066C1550.83 455.79 1550.83 394.515 1550.83 333.239C1550.83 330.019 1550.71 326.793 1550.86 323.579C1551.02 320.272 1551.9 317.761 1556.21 317.927C1563.2 318.197 1570.2 318.2 1577.19 317.92C1580.97 317.769 1581.93 319.106 1581.9 322.729C1581.76 346.04 1581.83 369.352 1581.83 392.663C1581.83 434.624 1581.78 476.584 1581.92 518.544C1581.93 522.21 1581.04 524.389 1576.83 525Z" fill="#EEF7ED"/>
<path d="M1582.58 252.75C1576.66 259.38 1569.05 261.835 1561.36 259.679C1552.32 257.148 1546.02 250.484 1544.92 240.629C1543.77 230.295 1550.9 221.152 1560.98 218.027C1570.33 215.131 1577.43 219.253 1583.26 226.02C1588.48 232.07 1588.87 239.27 1586.62 246.587C1585.95 248.743 1584.13 250.539 1582.58 252.75Z" fill="#EEF7ED"/>
</svg>
