<svg width="800" height="800" viewBox="0 0 800 800" fill="none" xmlns="http://www.w3.org/2000/svg">
<path d="M100 189.18V100C100 81.5908 85.0762 66.6668 66.6668 66.6668C48.2575 66.6668 33.3335 81.5908 33.3335 100V233.333C33.3335 270.152 63.1812 300 100 300H233.333C251.743 300 266.667 285.076 266.667 266.667C266.667 248.257 251.743 233.333 233.333 233.333H150.729C151.406 232.502 152.052 231.638 152.665 230.743C187.367 180.031 237.003 140.97 295.064 119.268C363.58 93.6561 439.1 93.9868 507.39 120.197C575.68 146.407 632.027 196.687 665.817 261.563C699.603 326.44 708.497 401.433 690.824 472.413C673.15 543.393 630.13 605.46 569.863 646.917C509.6 688.377 436.253 706.363 363.647 697.49C291.04 688.62 224.184 653.5 175.676 598.75C134.571 552.353 109.046 494.58 102.176 433.517C100.117 415.22 85.2248 400.263 66.8155 400.28C48.4058 400.293 33.1891 415.263 34.8755 433.593C41.9982 511.03 73.6068 584.52 125.555 643.153C184.901 710.137 266.695 753.103 355.523 763.96C444.353 774.813 534.087 752.807 607.817 702.087C681.547 651.367 734.18 575.433 755.803 488.593C777.427 401.753 766.543 310.004 725.207 230.632C683.87 151.261 614.933 89.7465 531.383 57.6805C447.837 25.6141 355.443 25.2098 271.618 56.5438C202.021 82.5588 142.318 128.96 100 189.18Z" fill="#EEF7ED"/>
<path d="M400 166.667C381.59 166.667 366.667 181.59 366.667 200V415.557C366.667 415.557 366.667 424.247 370.89 430.783C373.717 436.327 378.123 441.147 383.913 444.487L537.907 533.397C553.85 542.6 574.237 537.137 583.44 521.193C592.643 505.25 587.183 484.867 571.24 475.66L433.333 396.04V200C433.333 181.591 418.41 166.667 400 166.667Z" fill="#EEF7ED"/>
</svg>
