<svg width="800" height="800" viewBox="0 0 800 800" fill="none" xmlns="http://www.w3.org/2000/svg">
<g clip-path="url(#clip0_16_18)">
<path d="M0 400.01C0 179.077 179.086 0.00488281 399.994 0.00488281C620.912 0.00488281 800 179.078 800 400.01C800 620.91 620.912 799.995 399.994 799.995C179.086 799.995 0 620.91 0 400.01Z" fill="#D7A8AB"/>
<path d="M618.426 332.613H181.574C175.164 332.613 169.967 337.813 169.967 344.222V455.779C169.967 462.19 175.165 467.387 181.574 467.387H618.426C624.836 467.387 630.033 462.188 630.033 455.779V344.222C630.033 337.813 624.835 332.613 618.426 332.613Z" fill="#EEF7ED"/>
</g>
<defs>
<clipPath id="clip0_16_18">
<rect width="800" height="800" fill="white"/>
</clipPath>
</defs>
</svg>
