<svg width="800" height="800" viewBox="0 0 800 800" fill="none" xmlns="http://www.w3.org/2000/svg">
<path d="M606.378 769.489C597.4 769.489 588.467 766.733 580.778 761.244L400 631.6L219.222 761.244C211.732 766.633 202.731 769.517 193.504 769.485C184.278 769.453 175.297 766.507 167.844 761.067C160.385 755.658 154.821 748.035 151.945 739.281C149.068 730.528 149.025 721.09 151.822 712.311L219.244 494.711L40.0889 368.467C32.664 362.987 27.1499 355.312 24.3265 346.526C21.503 337.741 21.5132 328.29 24.3556 319.511C27.2203 310.753 32.765 303.117 40.206 297.682C47.6469 292.247 56.6078 289.287 65.8222 289.222L287.711 288.889L358.356 76.6888C361.271 67.9472 366.863 60.3442 374.339 54.9567C381.815 49.5692 390.796 46.6702 400.011 46.6702C409.226 46.6702 418.208 49.5692 425.684 54.9567C433.16 60.3442 438.751 67.9472 441.667 76.6888L511.111 288.889L734.133 289.222C743.359 289.274 752.333 292.232 759.781 297.675C767.23 303.119 772.774 310.771 775.625 319.544C778.477 328.318 778.491 337.767 775.666 346.55C772.841 355.332 767.321 363.001 759.889 368.467L580.733 494.711L648.156 712.311C650.958 721.088 650.921 730.525 648.048 739.279C645.175 748.033 639.614 755.657 632.156 761.067C624.68 766.55 615.648 769.501 606.378 769.489Z" fill="#EEF7ED"/>
</svg>
