<svg width="800" height="800" viewBox="0 0 800 800" fill="none" xmlns="http://www.w3.org/2000/svg">
<g clip-path="url(#clip0_16_51)">
<path fill-rule="evenodd" clip-rule="evenodd" d="M400.001 800C320.888 800 243.552 776.541 177.772 732.588C111.993 688.635 60.7232 626.164 30.4482 553.073C0.173127 479.983 -7.74796 399.556 7.68613 321.964C23.1202 244.372 61.2162 173.098 117.157 117.157C173.098 61.2163 244.373 23.1202 321.965 7.68608C399.557 -7.74801 479.983 0.173276 553.074 30.4483C626.164 60.7234 688.636 111.992 732.588 177.772C776.541 243.552 800.001 320.888 800.001 400C800.001 506.087 757.859 607.828 682.844 682.843C607.829 757.857 506.087 800 400.001 800ZM586.667 346.667H453.334V213.333C453.334 199.189 447.714 185.623 437.712 175.621C427.71 165.619 414.145 160 400.001 160C385.856 160 372.291 165.619 362.289 175.621C352.287 185.623 346.667 199.189 346.667 213.333V346.667H213.334C199.189 346.667 185.624 352.286 175.622 362.288C165.62 372.29 160.001 385.855 160.001 400C160.001 414.145 165.62 427.711 175.622 437.713C185.624 447.714 199.189 453.333 213.334 453.333H346.667V586.667C346.667 600.812 352.287 614.377 362.289 624.379C372.291 634.381 385.856 640 400.001 640C414.145 640 427.71 634.381 437.712 624.379C447.714 614.377 453.334 600.812 453.334 586.667V453.333H586.667C600.812 453.333 614.377 447.714 624.379 437.713C634.381 427.711 640.001 414.145 640.001 400C640.001 385.855 634.381 372.29 624.379 362.288C614.377 352.286 600.812 346.667 586.667 346.667Z" fill="#8AB987"/>
</g>
<defs>
<clipPath id="clip0_16_51">
<rect width="800" height="800" fill="white"/>
</clipPath>
</defs>
</svg>
