<svg width="800" height="800" viewBox="0 0 800 800" fill="none" xmlns="http://www.w3.org/2000/svg">
<path d="M400 733.333C584.093 733.333 733.333 584.093 733.333 400C733.333 215.905 584.093 66.6666 400 66.6666C215.905 66.6666 66.6665 215.905 66.6665 400C66.6665 584.093 215.905 733.333 400 733.333Z" fill="#051B16"/>
<path d="M441.997 542.673C435.663 542.673 429.33 540.34 424.33 535.34L306.664 417.673C296.997 408.007 296.997 392.007 306.664 382.34L424.33 264.672C433.997 255.005 449.997 255.005 459.663 264.672C469.33 274.339 469.33 290.339 459.663 300.005L359.663 400.007L459.663 500.007C469.33 509.673 469.33 525.673 459.663 535.34C454.997 540.34 448.663 542.673 441.997 542.673Z" fill="#EEF7ED"/>
</svg>
