<svg width="800" height="800" viewBox="0 0 800 800" fill="none" xmlns="http://www.w3.org/2000/svg">
<path d="M400 733.333C584.093 733.333 733.333 584.093 733.333 400C733.333 215.905 584.093 66.6666 400 66.6666C215.905 66.6666 66.6665 215.905 66.6665 400C66.6665 584.093 215.905 733.333 400 733.333Z" fill="#051B16"/>
<path d="M357.99 542.673C351.657 542.673 345.323 540.34 340.323 535.34C330.656 525.673 330.656 509.673 340.323 500.007L440.323 400.007L340.323 300.005C330.656 290.339 330.656 274.339 340.323 264.672C349.99 255.005 365.99 255.005 375.657 264.672L493.323 382.34C502.99 392.007 502.99 408.007 493.323 417.673L375.657 535.34C370.657 540.34 364.324 542.673 357.99 542.673Z" fill="#EEF7ED"/>
</svg>
