<svg width="800" height="800" viewBox="0 0 800 800" fill="none" xmlns="http://www.w3.org/2000/svg">
<path d="M99.9999 189.18V100C99.9999 81.5907 85.0759 66.6667 66.6666 66.6667C48.2573 66.6667 33.3333 81.5907 33.3333 100V233.333C33.3333 270.152 63.1809 300 99.9999 300H233.333C251.743 300 266.667 285.076 266.667 266.667C266.667 248.257 251.743 233.333 233.333 233.333H150.729C151.406 232.502 152.052 231.638 152.665 230.743C187.367 180.031 237.003 140.97 295.064 119.268C363.58 93.656 439.1 93.9867 507.39 120.197C575.68 146.407 632.027 196.687 665.817 261.563C699.603 326.44 708.497 401.433 690.823 472.413C673.15 543.393 630.13 605.46 569.863 646.917C509.6 688.377 436.253 706.363 363.647 697.49C291.04 688.62 224.184 653.5 175.676 598.75C134.571 552.353 109.046 494.58 102.176 433.517C100.117 415.22 85.2246 400.263 66.8153 400.28C48.4056 400.293 33.1889 415.263 34.8753 433.593C41.9979 511.03 73.6066 584.52 125.555 643.153C184.901 710.137 266.695 753.103 355.523 763.96C444.353 774.813 534.087 752.807 607.817 702.087C681.547 651.367 734.18 575.433 755.803 488.593C777.427 401.753 766.543 310.004 725.207 230.632C683.87 151.261 614.933 89.7463 531.383 57.6803C447.837 25.614 355.443 25.2097 271.618 56.5437C202.021 82.5587 142.318 128.96 99.9999 189.18Z" fill="#051B16"/>
<path d="M400 166.667C381.59 166.667 366.667 181.59 366.667 200V415.557C366.667 415.557 366.667 424.247 370.89 430.783C373.717 436.327 378.123 441.147 383.913 444.487L537.907 533.397C553.85 542.6 574.237 537.137 583.44 521.193C592.643 505.25 587.183 484.867 571.24 475.66L433.333 396.04V200C433.333 181.591 418.41 166.667 400 166.667Z" fill="#051B16"/>
</svg>
