<svg width="800" height="800" viewBox="0 0 800 800" fill="none" xmlns="http://www.w3.org/2000/svg">
<g clip-path="url(#clip0_16_69)">
<path d="M310.539 687.327C301.636 681.305 290.795 677.752 279.269 677.766C271.58 677.766 264.177 679.328 257.483 682.172C247.43 686.423 238.928 693.491 232.894 702.419C226.86 711.322 223.319 722.162 223.344 733.687C223.331 741.362 224.895 748.767 227.738 755.459C232 765.527 239.056 774.028 247.972 780.048C256.888 786.097 267.741 789.623 279.267 789.623C286.942 789.623 294.334 788.059 301.027 785.217C311.092 780.966 319.594 773.884 325.63 764.97C331.652 756.067 335.192 745.212 335.192 733.686C335.192 726.012 333.616 718.62 330.786 711.914C326.524 701.85 319.455 693.348 310.539 687.327ZM300.047 742.462C298.341 746.494 295.46 749.97 291.855 752.398C288.236 754.828 283.999 756.236 279.269 756.248C276.103 756.236 273.17 755.616 270.495 754.464C266.477 752.786 262.988 749.891 260.558 746.298C258.128 742.667 256.72 738.417 256.708 733.686C256.722 730.533 257.353 727.612 258.478 724.912C260.17 720.894 263.066 717.419 266.669 714.978C270.288 712.548 274.539 711.153 279.269 711.139C282.422 711.139 285.342 711.773 288.03 712.909C292.061 714.602 295.524 717.483 297.953 721.102C300.395 724.719 301.803 728.958 301.803 733.686C301.803 736.855 301.172 739.775 300.047 742.462Z" fill="#051B16"/>
<path d="M338.321 443.45C349.692 440.142 356.23 428.216 352.896 416.831L297.308 226.525C294 215.141 282.086 208.616 270.702 211.936C259.319 215.258 252.807 227.17 256.114 238.542L311.702 428.873C315.035 440.245 326.949 446.783 338.321 443.45Z" fill="#051B16"/>
<path d="M401.532 414.713C404.866 426.097 416.78 432.622 428.149 429.3C439.521 425.98 446.06 414.067 442.725 402.683L391.169 226.164C387.861 214.781 375.947 208.255 364.564 211.564C353.18 214.897 346.655 226.811 349.975 238.181L401.532 414.713Z" fill="#051B16"/>
<path d="M491.491 400.977C494.811 412.361 506.737 418.886 518.108 415.566C529.48 412.244 536.017 400.317 532.683 388.947L485.042 225.803C481.72 214.419 469.808 207.894 458.436 211.228C447.053 214.536 440.527 226.462 443.848 237.833L491.491 400.977Z" fill="#051B16"/>
<path d="M581.164 386.325C584.499 397.709 596.411 404.234 607.782 400.913C619.153 397.58 625.691 385.68 622.371 374.295L578.889 225.428C575.582 214.045 563.655 207.533 552.271 210.841C540.9 214.175 534.375 226.088 537.696 237.458L581.164 386.325Z" fill="#051B16"/>
<path d="M263.635 613.819C257.586 613.819 251.928 612.603 246.733 610.419C238.967 607.137 232.286 601.606 227.61 594.655C223.113 587.973 220.45 580.105 220.244 571.473C220.475 561.173 223.758 552.234 229.521 545.087C232.505 541.405 236.188 538.175 240.658 535.5C245.077 532.864 250.285 530.77 256.397 529.453L638.17 467.314C663.11 463.244 682.956 444.173 687.995 419.402L734.694 189.827V189.802C735.236 187.139 735.496 184.427 735.496 181.739C735.496 172.461 732.316 163.391 726.347 156.077C718.644 146.67 707.119 141.205 694.96 141.205H166.335L148.325 79.3266V79.3391C140.055 51.675 117.366 30.7172 89.1455 24.6703L24.5127 10.8297C13.5799 8.47812 2.8049 15.4562 0.451773 26.4C-1.88573 37.3437 5.07677 48.1203 16.0361 50.4594L80.6424 64.3109C94.3893 67.2562 105.452 77.4641 109.483 90.9547L227.583 496.633C224.922 497.873 222.35 499.217 219.869 500.703C207.141 508.289 196.933 518.936 190.086 531.366C183.533 543.175 180.058 556.563 179.724 570.375H179.672V572.481H179.724C179.981 583.272 182.281 593.62 186.274 603.067C192.671 618.172 203.291 630.952 216.677 639.995C230.052 649.052 246.319 654.364 263.633 654.35H478.121C478.055 652.348 477.817 650.397 477.817 648.381C477.817 636.558 479.038 625.019 481.214 613.817H263.635V613.819ZM178.122 181.741H694.963H694.977L648.278 411.327C646.597 419.597 639.981 425.955 631.661 427.298L266.891 486.684L178.122 181.741Z" fill="#051B16"/>
<path d="M658.756 507.139C580.75 507.139 517.513 570.377 517.513 648.383C517.513 726.389 580.75 789.627 658.756 789.627C736.775 789.627 800 726.389 800 648.383C800 570.377 736.775 507.139 658.756 507.139ZM739.475 671.925H682.299V729.089H635.225V671.925H578.047V624.841H635.225V567.662H682.299V624.841H739.475V671.925Z" fill="#051B16"/>
</g>
<defs>
<clipPath id="clip0_16_69">
<rect width="800" height="800" fill="white"/>
</clipPath>
</defs>
</svg>
