<svg width="800" height="800" viewBox="0 0 800 800" fill="none" xmlns="http://www.w3.org/2000/svg">
<path d="M100 212.866C100 196.717 111.513 183.626 125.714 183.626L214.522 183.611C232.167 183.102 247.734 170.344 253.738 151.471C253.896 150.974 254.077 150.362 254.728 148.141L258.555 135.085C260.897 127.08 262.937 120.106 265.792 113.872C277.07 89.2453 297.936 72.144 322.049 67.7657C328.152 66.6574 334.617 66.662 342.037 66.6674H457.97C465.39 66.662 471.853 66.6574 477.957 67.7657C502.07 72.144 522.937 89.2453 534.213 113.872C537.07 120.106 539.11 127.08 541.45 135.085L545.277 148.141C545.927 150.362 546.11 150.974 546.267 151.471C552.273 170.344 570.927 183.118 588.57 183.626H674.287C688.487 183.626 700 196.717 700 212.866C700 229.014 688.487 242.105 674.287 242.105H125.714C111.513 242.105 100 229.014 100 212.866Z" fill="#8AB987"/>
<path fill-rule="evenodd" clip-rule="evenodd" d="M314.181 382.717C327.92 381.27 340.17 391.823 341.544 406.283L358.21 581.723C359.584 596.183 349.56 609.08 335.824 610.527C322.085 611.973 309.833 601.42 308.46 586.96L291.793 411.52C290.419 397.06 300.443 384.163 314.181 382.717Z" fill="#8AB987"/>
<path fill-rule="evenodd" clip-rule="evenodd" d="M485.823 382.717C499.56 384.163 509.583 397.06 508.21 411.52L491.543 586.96C490.17 601.42 477.92 611.973 464.18 610.527C450.443 609.08 440.42 596.183 441.793 581.723L458.46 406.283C459.833 391.823 472.083 381.27 485.823 382.717Z" fill="#8AB987"/>
<path opacity="0.5" d="M386.52 733.337H413.48C506.236 733.337 552.617 733.337 582.77 703.807C612.927 674.277 616.01 625.837 622.18 528.953L631.07 389.357C634.42 336.79 636.093 310.508 620.963 293.853C605.837 277.197 580.29 277.197 529.2 277.197H270.801C219.709 277.197 194.162 277.197 179.035 293.853C163.907 310.508 165.581 336.79 168.929 389.357L177.819 528.953C183.99 625.837 187.075 674.277 217.229 703.807C247.384 733.337 293.763 733.337 386.52 733.337Z" fill="#8AB987"/>
</svg>
